<svg xmlns="http://www.w3.org/2000/svg" xmlns:xlink="http://www.w3.org/1999/xlink" width="2800" zoomAndPan="magnify" viewBox="0 0 2100 589.499987" height="786" preserveAspectRatio="xMidYMid meet" version="1.0"><defs><g/><clipPath id="70fcd36e80"><rect x="0" width="2010" y="0" height="571"/></clipPath></defs><g transform="matrix(1, 0, 0, 1, 45, 9)"><g clip-path="url(#70fcd36e80)"><g fill="#0074e6" fill-opacity="1"><g transform="translate(0.840704, 433.804034)"><g><path d="M 134 5.25 C 112.101562 5.25 92.6875 0.582031 75.75 -8.75 C 58.820312 -18.09375 45.539062 -31.234375 35.90625 -48.171875 C 26.269531 -65.109375 21.453125 -84.671875 21.453125 -106.859375 C 21.453125 -129.335938 26.195312 -149.332031 35.6875 -166.84375 C 45.175781 -184.363281 58.3125 -198.015625 75.09375 -207.796875 C 91.882812 -217.578125 111.664062 -222.46875 134.4375 -222.46875 C 155.75 -222.46875 174.578125 -217.796875 190.921875 -208.453125 C 207.273438 -199.109375 220.050781 -186.332031 229.25 -170.125 C 238.445312 -153.925781 243.046875 -135.898438 243.046875 -116.046875 C 243.046875 -112.835938 242.972656 -109.476562 242.828125 -105.96875 C 242.679688 -102.46875 242.460938 -98.820312 242.171875 -95.03125 L 77.078125 -95.03125 C 78.242188 -78.09375 84.15625 -64.804688 94.8125 -55.171875 C 105.46875 -45.546875 118.382812 -40.734375 133.5625 -40.734375 C 144.945312 -40.734375 154.507812 -43.285156 162.25 -48.390625 C 169.988281 -53.492188 175.753906 -60.132812 179.546875 -68.3125 L 236.484375 -68.3125 C 232.390625 -54.59375 225.597656 -42.113281 216.109375 -30.875 C 206.617188 -19.632812 194.941406 -10.800781 181.078125 -4.375 C 167.210938 2.039062 151.519531 5.25 134 5.25 Z M 134.4375 -176.921875 C 120.71875 -176.921875 108.601562 -173.050781 98.09375 -165.3125 C 87.582031 -157.570312 80.867188 -145.820312 77.953125 -130.0625 L 186.109375 -130.0625 C 185.234375 -144.363281 179.976562 -155.75 170.34375 -164.21875 C 160.71875 -172.6875 148.75 -176.921875 134.4375 -176.921875 Z M 134.4375 -176.921875 "/></g></g></g><g fill="#0074e6" fill-opacity="1"><g transform="translate(262.715983, 433.804034)"><g><path d="M 103.34375 5.25 C 84.664062 5.25 69.335938 2.257812 57.359375 -3.71875 C 45.390625 -9.707031 36.484375 -17.664062 30.640625 -27.59375 C 24.804688 -37.519531 21.890625 -48.46875 21.890625 -60.4375 C 21.890625 -80.582031 29.769531 -96.929688 45.53125 -109.484375 C 61.300781 -122.035156 84.953125 -128.3125 116.484375 -128.3125 L 171.671875 -128.3125 L 171.671875 -133.5625 C 171.671875 -148.457031 167.4375 -159.40625 158.96875 -166.40625 C 150.5 -173.414062 139.988281 -176.921875 127.4375 -176.921875 C 116.050781 -176.921875 106.125 -174.21875 97.65625 -168.8125 C 89.1875 -163.414062 83.929688 -155.460938 81.890625 -144.953125 L 27.15625 -144.953125 C 28.613281 -160.710938 33.941406 -174.429688 43.140625 -186.109375 C 52.335938 -197.796875 64.234375 -206.773438 78.828125 -213.046875 C 93.421875 -219.328125 109.769531 -222.46875 127.875 -222.46875 C 158.820312 -222.46875 183.195312 -214.726562 201 -199.25 C 218.8125 -183.78125 227.71875 -161.882812 227.71875 -133.5625 L 227.71875 0 L 179.984375 0 L 174.734375 -35.03125 C 168.304688 -23.351562 159.328125 -13.71875 147.796875 -6.125 C 136.265625 1.457031 121.445312 5.25 103.34375 5.25 Z M 116.046875 -38.53125 C 132.109375 -38.53125 144.585938 -43.785156 153.484375 -54.296875 C 162.390625 -64.804688 168.015625 -77.800781 170.359375 -93.28125 L 122.625 -93.28125 C 107.726562 -93.28125 97.066406 -90.578125 90.640625 -85.171875 C 84.222656 -79.773438 81.015625 -73.132812 81.015625 -65.25 C 81.015625 -56.78125 84.222656 -50.207031 90.640625 -45.53125 C 97.066406 -40.863281 105.535156 -38.53125 116.046875 -38.53125 Z M 116.046875 -38.53125 "/></g></g></g><g fill="#0074e6" fill-opacity="1"><g transform="translate(515.394953, 433.804034)"><g><path d="M 14.453125 0 L 14.453125 -45.109375 L 125.25 -170.796875 L 15.765625 -170.796875 L 15.765625 -217.203125 L 189.1875 -217.203125 L 189.1875 -172.109375 L 76.640625 -46.421875 L 191.375 -46.421875 L 191.375 0 Z M 14.453125 0 "/></g></g></g><g fill="#0074e6" fill-opacity="1"><g transform="translate(725.157922, 433.804034)"><g><path d="M 28.46875 0 L 28.46875 -217.203125 L 77.953125 -217.203125 L 82.765625 -187.875 C 89.773438 -198.382812 99.046875 -206.773438 110.578125 -213.046875 C 122.109375 -219.328125 135.460938 -222.46875 150.640625 -222.46875 C 184.210938 -222.46875 208.007812 -209.472656 222.03125 -183.484375 C 229.90625 -195.453125 240.484375 -204.941406 253.765625 -211.953125 C 267.054688 -218.960938 281.582031 -222.46875 297.34375 -222.46875 C 325.664062 -222.46875 347.414062 -214 362.59375 -197.0625 C 377.78125 -180.132812 385.375 -155.320312 385.375 -122.625 L 385.375 0 L 329.3125 0 L 329.3125 -117.359375 C 329.3125 -136.046875 325.734375 -150.351562 318.578125 -160.28125 C 311.429688 -170.207031 300.414062 -175.171875 285.53125 -175.171875 C 270.34375 -175.171875 258.148438 -169.625 248.953125 -158.53125 C 239.753906 -147.4375 235.15625 -131.960938 235.15625 -112.109375 L 235.15625 0 L 179.109375 0 L 179.109375 -117.359375 C 179.109375 -136.046875 175.457031 -150.351562 168.15625 -160.28125 C 160.863281 -170.207031 149.625 -175.171875 134.4375 -175.171875 C 119.550781 -175.171875 107.507812 -169.625 98.3125 -158.53125 C 89.113281 -147.4375 84.515625 -131.960938 84.515625 -112.109375 L 84.515625 0 Z M 28.46875 0 "/></g></g></g><g fill="#0074e6" fill-opacity="1"><g transform="translate(1135.487552, 433.804034)"><g><path d="M 55.609375 96.34375 L 105.984375 -14.453125 L 92.84375 -14.453125 L 8.328125 -217.203125 L 69.1875 -217.203125 L 130.0625 -64.375 L 193.5625 -217.203125 L 253.125 -217.203125 L 115.171875 96.34375 Z M 55.609375 96.34375 "/></g></g></g><g fill="#0074e6" fill-opacity="1"><g transform="translate(1396.924864, 433.804034)"><g><path d="M 157.21875 5.25 C 140.863281 5.25 126.554688 2.1875 114.296875 -3.9375 C 102.035156 -10.070312 92.109375 -18.6875 84.515625 -29.78125 L 78.390625 0 L 28.46875 0 L 28.46875 -315.296875 L 84.515625 -315.296875 L 84.515625 -186.109375 C 91.523438 -195.742188 100.796875 -204.210938 112.328125 -211.515625 C 123.859375 -218.816406 138.820312 -222.46875 157.21875 -222.46875 C 177.65625 -222.46875 195.898438 -217.503906 211.953125 -207.578125 C 228.015625 -197.648438 240.710938 -184.070312 250.046875 -166.84375 C 259.390625 -149.625 264.0625 -130.066406 264.0625 -108.171875 C 264.0625 -86.273438 259.390625 -66.785156 250.046875 -49.703125 C 240.710938 -32.617188 228.015625 -19.1875 211.953125 -9.40625 C 195.898438 0.363281 177.65625 5.25 157.21875 5.25 Z M 145.390625 -43.796875 C 163.203125 -43.796875 177.945312 -49.78125 189.625 -61.75 C 201.300781 -73.71875 207.140625 -89.191406 207.140625 -108.171875 C 207.140625 -127.140625 201.300781 -142.753906 189.625 -155.015625 C 177.945312 -167.285156 163.203125 -173.421875 145.390625 -173.421875 C 127.285156 -173.421875 112.46875 -167.359375 100.9375 -155.234375 C 89.40625 -143.117188 83.640625 -127.578125 83.640625 -108.609375 C 83.640625 -89.628906 89.40625 -74.082031 100.9375 -61.96875 C 112.46875 -49.851562 127.285156 -43.796875 145.390625 -43.796875 Z M 145.390625 -43.796875 "/></g></g></g><g fill="#0074e6" fill-opacity="1"><g transform="translate(1682.447755, 433.804034)"><g><path d="M 58.6875 -250.921875 C 48.46875 -250.921875 40.070312 -253.988281 33.5 -260.125 C 26.925781 -266.257812 23.640625 -273.992188 23.640625 -283.328125 C 23.640625 -292.671875 26.925781 -300.332031 33.5 -306.3125 C 40.070312 -312.300781 48.46875 -315.296875 58.6875 -315.296875 C 68.90625 -315.296875 77.296875 -312.300781 83.859375 -306.3125 C 90.429688 -300.332031 93.71875 -292.671875 93.71875 -283.328125 C 93.71875 -273.992188 90.429688 -266.257812 83.859375 -260.125 C 77.296875 -253.988281 68.90625 -250.921875 58.6875 -250.921875 Z M 30.65625 0 L 30.65625 -217.203125 L 86.703125 -217.203125 L 86.703125 0 Z M 30.65625 0 "/></g></g></g><g fill="#0074e6" fill-opacity="1"><g transform="translate(1799.371921, 433.804034)"><g><path d="M 14.453125 0 L 14.453125 -45.109375 L 125.25 -170.796875 L 15.765625 -170.796875 L 15.765625 -217.203125 L 189.1875 -217.203125 L 189.1875 -172.109375 L 76.640625 -46.421875 L 191.375 -46.421875 L 191.375 0 Z M 14.453125 0 "/></g></g></g></g></g></svg>